<svg width="34" height="34" viewBox="0 0 34 34" fill="none" xmlns="http://www.w3.org/2000/svg">
<path fill-rule="evenodd" clip-rule="evenodd" d="M4.25 7.08335C4.25 3.95374 6.78705 1.41669 9.91667 1.41669H21.7361C23.239 1.41669 24.6804 2.01371 25.7431 3.07642L28.0903 5.42363C29.153 6.48633 29.75 7.92767 29.75 9.43056V26.9167C29.75 30.0463 27.2129 32.5834 24.0833 32.5834H9.91667C6.78705 32.5834 4.25 30.0463 4.25 26.9167V7.08335ZM26.9167 11.3334V26.9167C26.9167 28.4815 25.6481 29.75 24.0833 29.75H9.91667C8.35186 29.75 7.08333 28.4815 7.08333 26.9167V7.08335C7.08333 5.51855 8.35186 4.25002 9.91667 4.25002H19.8333V7.08335C19.8333 9.43056 21.7361 11.3334 24.0833 11.3334H26.9167ZM26.7595 8.50002C26.6204 8.09995 26.392 7.73229 26.0868 7.4271L23.7396 5.07988C23.4344 4.77469 23.0667 4.54631 22.6667 4.40719V7.08335C22.6667 7.86576 23.3009 8.50002 24.0833 8.50002H26.7595Z" fill="#A0AEC0"/>
<path d="M16.4584 12.8575C16.2913 12.9266 16.1347 13.0291 15.9989 13.1649L11.7489 17.4149C11.1957 17.9682 11.1957 18.8652 11.7489 19.4184C12.3022 19.9716 13.1991 19.9716 13.7524 19.4184L15.584 17.5868V24.0833C15.584 24.8657 16.2182 25.5 17.0007 25.5C17.7831 25.5 18.4173 24.8657 18.4173 24.0833V17.5868L20.2489 19.4184C20.8022 19.9716 21.6991 19.9716 22.2524 19.4184C22.8056 18.8652 22.8056 17.9682 22.2524 17.4149L18.0024 13.1649C17.585 12.7475 16.9719 12.645 16.4584 12.8575Z" fill="#A1AAB9"/>
</svg>
