<svg width="24" height="24" viewBox="0 0 24 24" fill="none" xmlns="http://www.w3.org/2000/svg">
<path fill-rule="evenodd" clip-rule="evenodd" d="M11.8676 8L10.6954 6.04631C10.398 5.55055 9.94858 5.26705 9.49937 5.20979C8.63403 5.09948 7.55518 5 6.5 5C5.76672 5 5.0186 5.04811 4.33466 5.11543C3.70504 5.17741 3.24029 5.64512 3.19011 6.29924C3.08968 7.6086 3 9.48265 3 12C3 13.7726 3.06456 15.3516 3.14656 16.6416C3.22311 17.8458 4.13628 18.7547 5.34979 18.8247C6.99648 18.9197 9.2132 19 12 19C14.7868 19 17.0035 18.9197 18.6502 18.8247C19.8637 18.7547 20.7769 17.8458 20.8534 16.6416C20.9354 15.3516 21 13.7726 21 12C21 11.0339 20.944 10.1167 20.8699 9.32792C20.8087 8.67691 20.3231 8.19125 19.6721 8.13009C18.8833 8.05599 17.9661 8 17 8H11.8676ZM13 6L12.4104 5.01732C11.8306 4.05094 10.8702 3.36835 9.75227 3.22585C8.83875 3.10939 7.66937 3 6.5 3C5.68392 3 4.86784 3.05328 4.13873 3.12505C2.53169 3.28325 1.31947 4.53621 1.19597 6.14628C1.09136 7.51009 1 9.43529 1 12C1 13.8205 1.06629 15.4422 1.15059 16.7685C1.29156 18.9862 3.01613 20.6935 5.23467 20.8214C6.91963 20.9185 9.17474 21 12 21C14.8253 21 17.0804 20.9185 18.7653 20.8214C20.9839 20.6935 22.7084 18.9862 22.8494 16.7685C22.9337 15.4422 23 13.8205 23 12C23 10.9589 22.9398 9.97795 22.8611 9.14085C22.7101 7.53313 21.4669 6.2899 19.8591 6.13886C19.0221 6.06022 18.0411 6 17 6H13Z" fill="#7549D4"/>
</svg>
