<svg width="24" height="24" viewBox="0 0 24 24" fill="none" xmlns="http://www.w3.org/2000/svg">
<path fill-rule="evenodd" clip-rule="evenodd" d="M14.7276 1.65111C12.8342 1.17775 11 2.60982 11 4.56154V18H13V8.28076L17.2724 9.34886C19.1658 9.82222 21 8.39014 21 6.43843V5.56154C21 4.18493 20.0631 2.98498 18.7276 2.65111L14.7276 1.65111ZM13 4.56154C13 3.91097 13.6114 3.43361 14.2425 3.59139L18.2425 4.59139C18.6877 4.70269 19 5.10267 19 5.56154V6.43843C19 7.089 18.3886 7.56636 17.7575 7.40857L13 6.21921V4.56154Z" fill="white"/>
<path fill-rule="evenodd" clip-rule="evenodd" d="M8 21C9.65685 21 11 19.6569 11 18C11 16.3431 9.65685 15 8 15C6.34315 15 5 16.3431 5 18C5 19.6569 6.34315 21 8 21ZM8 23C10.7614 23 13 20.7614 13 18C13 15.2386 10.7614 13 8 13C5.23858 13 3 15.2386 3 18C3 20.7614 5.23858 23 8 23Z" fill="white"/>
</svg>
