<svg width="20" height="20" viewBox="0 0 20 20" fill="none" xmlns="http://www.w3.org/2000/svg">
<path d="M15.832 5.83333L15.1095 15.9517C15.0796 16.3722 14.8914 16.7657 14.583 17.053C14.2745 17.3403 13.8686 17.5 13.447 17.5H6.55036C6.12881 17.5 5.72292 17.3403 5.41444 17.053C5.10595 16.7657 4.91779 16.3722 4.88786 15.9517L4.16536 5.83333H7.4987V3.33333C7.4987 3.11232 7.58649 2.90036 7.74277 2.74408C7.89906 2.5878 8.11102 2.5 8.33203 2.5H11.6654C11.8864 2.5 12.0983 2.5878 12.2546 2.74408C12.4109 2.90036 12.4987 3.11232 12.4987 3.33333V5.83333H15.832Z" fill="white"/>
<path d="M8.33203 9.16667V14.1667M11.6654 9.16667V14.1667M3.33203 5.83333H16.6654M15.832 5.83333L15.1095 15.9517C15.0796 16.3722 14.8914 16.7657 14.583 17.053C14.2745 17.3403 13.8686 17.5 13.447 17.5H6.55036C6.12881 17.5 5.72292 17.3403 5.41444 17.053C5.10595 16.7657 4.91779 16.3722 4.88786 15.9517L4.16536 5.83333H15.832ZM12.4987 5.83333V3.33333C12.4987 3.11232 12.4109 2.90036 12.2546 2.74408C12.0983 2.5878 11.8864 2.5 11.6654 2.5H8.33203C8.11102 2.5 7.89905 2.5878 7.74277 2.74408C7.58649 2.90036 7.4987 3.11232 7.4987 3.33333V5.83333H12.4987Z" stroke="#E2486A" stroke-width="2" stroke-linecap="round" stroke-linejoin="round"/>
</svg>
