<svg width="24" height="24" viewBox="0 0 24 24"  xmlns="http://www.w3.org/2000/svg">
    <path fill-rule="evenodd" clip-rule="evenodd" d="M12 11c-1.773 0-3.352.065-4.642.147a2.381 2.381 0 00-2.252 2.226A37.223 37.223 0 005 16c0 .852.043 1.763.106 2.627a2.381 2.381 0 002.252 2.226 73.539 73.539 0 009.284 0 2.381 2.381 0 002.252-2.226c.063-.864.106-1.775.106-2.627 0-.852-.044-1.763-.106-2.627a2.381 2.381 0 00-2.252-2.226A73.536 73.536 0 0012 11zM7.231 9.15a4.381 4.381 0 00-4.12 4.079A39.206 39.206 0 003 16c0 .915.047 1.877.111 2.771a4.381 4.381 0 004.12 4.078 75.543 75.543 0 009.537 0 4.381 4.381 0 004.12-4.078c.065-.894.112-1.856.112-2.771 0-.915-.047-1.877-.111-2.771a4.381 4.381 0 00-4.12-4.078 75.545 75.545 0 00-9.537 0z"/>
    <path fill-rule="evenodd" clip-rule="evenodd" d="M13 16.732A2 2 0 0012 13a2 2 0 00-1 3.732V18a1 1 0 102 0v-1.268zM7 6a5 5 0 0110 0v4a1 1 0 11-2 0V6a3 3 0 10-6 0H7z" />
</svg>
