<svg width="46" height="34" viewBox="0 0 46 34" fill="none" xmlns="http://www.w3.org/2000/svg">
<path d="M44.0789 6.00906C43.8413 5.02672 43.3575 4.12667 42.6763 3.39981C41.9951 2.67294 41.1406 2.14501 40.1991 1.86934C36.7593 1 23 1 23 1C23 1 9.24072 1 5.80089 1.95213C4.85944 2.22781 4.00494 2.75574 3.32372 3.4826C2.64249 4.20946 2.15866 5.10952 1.9211 6.09185C1.29156 9.7049 0.983616 13.3701 1.00114 17.0414C0.978703 20.7403 1.28666 24.4335 1.9211 28.0737C2.183 29.0256 2.67767 29.8914 3.35731 30.5875C4.03695 31.2837 4.87858 31.7867 5.80089 32.0479C9.24072 33 23 33 23 33C23 33 36.7593 33 40.1991 32.0479C41.1406 31.7722 41.9951 31.2443 42.6763 30.5174C43.3575 29.7905 43.8413 28.8905 44.0789 27.9082C44.7036 24.3223 45.0115 20.685 44.9989 17.0414C45.0213 13.3425 44.7133 9.64931 44.0789 6.00906V6.00906Z" stroke="#A1AAB9" stroke-width="2" stroke-linecap="round" stroke-linejoin="round"/>
<path d="M18.5 24.08L30 17.54L18.5 11V24.08Z" stroke="#A1AAB9" stroke-width="2" stroke-linecap="round" stroke-linejoin="round"/>
</svg>
