<svg width="24" height="24" viewBox="0 0 24 24" fill="none" xmlns="http://www.w3.org/2000/svg">
<path d="M22.5396 6.42C22.4208 5.94541 22.1789 5.51057 21.8382 5.15941C21.4976 4.80824 21.0703 4.55318 20.5996 4.42C18.8796 4 11.9996 4 11.9996 4C11.9996 4 5.1196 4 3.3996 4.46C2.92884 4.59318 2.50157 4.84824 2.16094 5.19941C1.82031 5.55057 1.57838 5.98541 1.4596 6.46C1.14481 8.20556 0.990831 9.97631 0.999595 11.75C0.988374 13.537 1.14236 15.3213 1.4596 17.08C1.59055 17.5398 1.8379 17.9581 2.17774 18.2945C2.51758 18.6308 2.93842 18.8738 3.3996 19C5.1196 19.46 11.9996 19.46 11.9996 19.46C11.9996 19.46 18.8796 19.46 20.5996 19C21.0703 18.8668 21.4976 18.6118 21.8382 18.2606C22.1789 17.9094 22.4208 17.4746 22.5396 17C22.852 15.2676 23.0059 13.5103 22.9996 11.75C23.0108 9.96295 22.8568 8.1787 22.5396 6.42V6.42Z" stroke="black" stroke-width="2" stroke-linecap="round" stroke-linejoin="round"/>
<path d="M9.75 15.02L15.5 11.75L9.75 8.47998V15.02Z" stroke="black" stroke-width="2" stroke-linecap="round" stroke-linejoin="round"/>
</svg>
