<svg width="139" height="40" viewBox="0 0 139 40" fill="none" xmlns="http://www.w3.org/2000/svg">
<path fill-rule="evenodd" clip-rule="evenodd" d="M19.9238 39.9998C8.92692 40.0424 -0.0496114 31.0078 0.000206361 19.9057C0.0500241 8.9302 8.98297 -0.0664003 20.0546 0.000369272C30.9675 0.0654091 39.9305 9.03329 39.8454 20.1689C39.7617 31.0956 30.8893 40.0355 19.9238 39.9998Z" fill="#0090FF"/>
<path fill-rule="evenodd" clip-rule="evenodd" d="M22.3985 18.3837L27.5844 19.1189L28.0006 17.6233L22.6369 16.8266C23.2572 14.6218 23.7931 12.5142 24.4636 10.4495C24.6843 9.76973 25.1776 9.13179 25.6806 8.6042C26.34 7.91229 27.253 8.06555 27.8117 8.82562C28.0459 9.1439 28.2663 9.48086 28.5469 9.75347C28.9049 10.1008 29.4329 10.2696 29.7927 9.93164C30.029 9.70953 30.0214 9.18679 30.0435 8.79413C30.0521 8.63603 29.8667 8.4506 29.7387 8.30495C29.1139 7.5947 28.2701 7.34319 27.3789 7.30583C25.3907 7.22211 23.9643 8.23991 22.8438 9.77838C21.734 11.303 21.2472 13.0954 20.7172 14.8671C20.5626 15.3839 20.4304 15.908 20.2751 16.4758C18.3394 16.1945 16.4827 15.9246 14.5716 15.6475L14.3734 17.167L19.9457 18.0277C19.6952 19.0874 19.4621 20.0761 19.222 21.0905L13.8963 20.3432L13.7002 21.8457L18.8618 22.6372C18.8618 22.8306 18.8829 22.9431 18.8587 23.0451C18.3138 25.3762 17.8074 27.7173 17.1964 30.0307C16.9044 31.1336 16.4346 32.1984 15.5216 32.9734C14.7695 33.6113 13.9437 33.5048 13.3784 32.7132C13.1231 32.3565 12.9097 31.9331 12.5723 31.6833C12.3264 31.4999 11.778 31.3899 11.5974 31.5366C11.3293 31.7546 11.1352 32.2365 11.1581 32.5904C11.1774 32.9042 11.4781 33.2712 11.7542 33.4854C12.6841 34.2043 13.7783 34.3084 14.8871 34.0894C16.7446 33.7224 18.0544 32.5589 18.8663 30.9136C19.5043 29.62 19.9817 28.2386 20.4332 26.8638C20.8421 25.619 21.1195 24.3307 21.4658 23.0174L26.9029 23.809L27.336 22.3034C25.4267 22.0218 23.6049 21.7523 21.7675 21.481L22.3985 18.3837" fill="white"/>
<path fill-rule="evenodd" clip-rule="evenodd" d="M53.9842 20.8297V28.6652H50.8872V10.9128H63.2268V13.5082H53.9842V18.2585H62.6905V20.8297H53.9842V20.8297ZM68.139 10.9128V13.851H65.2371V10.9128H68.139ZM68.139 28.6652V15.4916H65.2371V28.6652H68.139ZM74.3047 10.9128V28.6652H71.4028V10.9128H74.3047ZM83.458 28.9835C86.8231 28.9835 88.8227 26.8289 89.4081 24.7231H86.555C86.043 25.972 84.8722 26.5594 83.3358 26.5594C81.6777 26.5594 79.9704 25.3596 79.7753 22.9109H89.5544C89.8229 18.5035 87.2867 15.1978 83.2629 15.1978C79.5559 15.1978 76.8246 18.0139 76.8246 21.9807C76.8246 25.7758 79.239 28.9835 83.458 28.9835ZM79.7753 20.7809H86.6037C86.5304 18.7238 84.9698 17.4753 83.2629 17.4753C81.897 17.4753 80.0437 18.3076 79.7753 20.7809ZM97.8176 28.9835C100.622 28.9835 103.329 27.2451 103.914 24.1598H101.085C100.695 25.9228 99.3049 26.5594 97.866 26.5594C96.1591 26.5594 94.5009 25.2129 94.5009 22.0786C94.5009 18.9688 96.1103 17.622 97.9394 17.622C99.5245 17.622 100.719 18.6014 100.988 19.9973H103.816C103.304 17.0833 100.817 15.1978 97.9394 15.1978C94.0131 15.1978 91.5011 18.1852 91.5011 22.1031C91.5011 26.0207 94.0131 28.9835 97.8176 28.9835ZM118.537 22.1031C118.537 26.8777 115.269 28.9835 112.074 28.9835C108.88 28.9835 105.612 26.8777 105.612 22.1031C105.612 17.3528 108.88 15.1978 112.074 15.1978C115.269 15.1978 118.537 17.3528 118.537 22.1031ZM112.074 26.6085C110.221 26.6085 108.612 25.1638 108.612 22.1031C108.612 19.0667 110.221 17.5732 112.074 17.5732C113.928 17.5732 115.537 19.0667 115.537 22.1031C115.537 25.1638 113.928 26.6085 112.074 26.6085ZM124.027 10.9125V13.851H121.125V10.9128H124.027V10.9125ZM124.027 15.4916H121.125V28.6652H124.027V15.4916V15.4916ZM130.193 21.6624V28.6652H127.291V15.4916H130.193V17.3282C130.949 15.9569 132.315 15.1978 134.168 15.1978C137.338 15.1978 138.631 17.2549 138.631 20.3889V28.6652H135.729V21.0992C135.729 19.3362 135.485 17.5732 133.241 17.5732C130.998 17.5732 130.193 19.287 130.193 21.6624V21.6624Z" fill="black"/>
</svg>
