<svg width="136" height="40" viewBox="0 0 136 40" fill="none" xmlns="http://www.w3.org/2000/svg">
<path d="M114.965 17.086C118.036 17.086 120.198 19.0913 120.198 21.8387C120.198 24.5686 117.981 26.609 114.965 26.609C111.932 26.609 109.788 24.6037 109.788 21.8739C109.788 19.1256 112.022 17.087 114.965 17.087V17.086ZM105.082 14.0619C106.663 14.0619 107.88 14.4941 108.788 15.0817L107.917 17.6746C107.244 17.2424 106.282 16.8269 105.191 16.8269C102.866 16.8269 101.595 18.4343 101.595 20.3184C101.595 22.2015 102.866 23.844 105.191 23.844C106.282 23.844 107.298 23.4285 107.971 22.9964L108.843 25.5893C107.934 26.1769 106.663 26.609 105.082 26.609C100.976 26.609 98.3603 23.8782 98.3603 20.3184C98.3603 16.7751 101.122 14.0629 105.082 14.0629V14.0619ZM92.165 17.087C95.2354 17.087 97.397 19.0913 97.397 21.8387C97.397 24.5686 95.1808 26.609 92.165 26.609C89.1307 26.609 86.9875 24.6037 86.9875 21.8739C86.9875 19.1256 89.2223 17.087 92.165 17.087ZM81.4825 17.087C84.5168 17.087 86.1695 18.9359 86.1695 22.0284C86.1695 22.2015 86.1695 22.3921 86.151 22.5994H79.902C79.9742 23.4119 80.7922 24.1031 81.9193 24.1031C83.0631 24.1031 83.7349 23.3943 83.9172 23.1352L85.916 24.6037C85.643 25.1405 84.3345 26.609 81.8638 26.609C78.7212 26.609 76.7955 24.5519 76.7955 21.8739C76.7955 19.2125 78.6851 17.087 81.4825 17.087ZM75.4325 13.8898V26.3841H72.599V25.6753C72.326 25.9696 71.4173 26.609 70.0191 26.609C67.2753 26.609 65.3496 24.638 65.3496 21.8563C65.3496 19.0395 67.094 17.087 69.8553 17.087C71.3081 17.087 72.1992 17.7782 72.3991 18.0031V13.8898H75.4325ZM131.771 17.087C134.75 17.087 135.041 19.5059 135.041 21.3548V26.3841H132.006V20.9744C132.006 20.1277 131.48 19.6789 130.753 19.6789C129.917 19.6789 129.445 20.249 129.445 20.9744V26.3841H126.411V17.31H129.372V18.2437C129.736 17.707 130.572 17.086 131.771 17.086V17.087ZM124.576 17.3109V26.3841H121.542V17.31H124.576V17.3109ZM63.9875 17.3109V26.3841H60.9523V17.31H63.9875V17.3109ZM50.7427 14.2868L53.6132 22.8927L56.4837 14.2868H59.8992L55.3029 26.3841H51.9235L47.3271 14.2868H50.7427ZM70.4364 19.6271C69.201 19.6271 68.3839 20.5432 68.3839 21.8739C68.3839 23.2212 69.2195 24.0855 70.4364 24.0855C71.7449 24.0855 72.4898 23.0834 72.4898 21.8739C72.4898 20.4396 71.6357 19.6271 70.4364 19.6271ZM92.165 19.6271C90.9111 19.6271 90.0209 20.5432 90.0209 21.8739C90.0209 23.187 90.9296 24.068 92.165 24.068C93.4189 24.068 94.3637 23.1352 94.3637 21.8387C94.3637 20.5081 93.4013 19.6271 92.165 19.6271ZM114.966 19.6271C113.712 19.6271 112.822 20.5432 112.822 21.8739C112.822 23.187 113.73 24.068 114.965 24.068C116.219 24.068 117.164 23.1352 117.164 21.8387C117.164 20.5081 116.201 19.6271 114.965 19.6271H114.966ZM81.5371 19.4198C80.5377 19.4198 80.0658 20.1277 79.9927 20.7672H83.0816C83.0446 20.0417 82.4819 19.4198 81.5362 19.4198H81.5371ZM123.032 13.6307C123.994 13.6307 124.74 14.2877 124.74 15.2029C124.74 16.1014 123.995 16.7575 123.032 16.7575C122.069 16.7575 121.342 16.1014 121.342 15.2029C121.342 14.2868 122.069 13.6298 123.032 13.6298V13.6307ZM62.4431 13.6307C63.4054 13.6307 64.1504 14.2877 64.1504 15.2029C64.1504 16.1014 63.4054 16.7575 62.4431 16.7575C61.4807 16.7575 60.7533 16.1014 60.7533 15.2029C60.7533 14.2868 61.4797 13.6298 62.4431 13.6298V13.6307Z" fill="#1C0937"/>
<path d="M20.3026 40C31.5162 40 40.6052 31.0452 40.6052 20C40.6052 8.95387 31.5171 0 20.3026 0C9.09175 0 0 8.95387 0 20C0 31.0452 9.09083 39.9991 20.3026 39.9991V40ZM20.3026 38.2603C10.0652 38.2603 1.76653 30.0847 1.76653 20C1.76653 9.9144 10.0652 1.73877 20.3035 1.73877C30.5409 1.73877 38.8405 9.9144 38.8405 20C38.8405 30.0847 30.5409 38.2603 20.3035 38.2603H20.3026Z" fill="#FF8A3C"/>
<path d="M35.2842 12.449C36.4328 14.7815 37.0281 17.3474 37.0239 19.9473C37.0239 29.2103 29.6274 36.7196 20.5024 36.7196C19.5159 36.7196 18.5397 36.6317 17.581 36.4577L17.8864 34.7199C18.7442 34.8754 19.6186 34.954 20.5024 34.954C28.6669 34.954 35.2851 28.2358 35.2851 19.9473C35.2851 17.5858 34.7484 15.3038 33.7305 13.2393L35.2842 12.449ZM20.3025 3.47852V5.21728C14.1525 5.21728 8.69466 8.89563 6.40715 14.4099L4.77295 13.751C7.32882 7.589 13.4298 3.47852 20.3025 3.47852Z" fill="#FF5D50"/>
<path d="M25.4941 7.99704C30.3356 10.031 33.5448 14.7245 33.5448 19.9991C33.5448 26.3443 28.9133 31.7383 22.6439 32.8395L22.333 31.1276C27.7649 30.1735 31.7792 25.4985 31.7792 20C31.7792 15.4278 28.9975 11.3598 24.8019 9.59701L25.4941 7.99704ZM20.3027 6.95508V8.69477C13.9658 8.69477 8.82815 13.7556 8.82815 19.9991C8.82815 23.8838 10.8316 27.4298 14.0833 29.4998L13.1246 30.961C9.37597 28.5735 7.06348 24.4797 7.06348 19.9991C7.06348 12.7951 12.9905 6.95508 20.3037 6.95508H20.3027Z" fill="#F53568"/>
<path d="M20.3022 10.4344C14.9406 10.4344 10.5933 14.717 10.5933 19.9999C10.5933 25.2819 14.9406 29.5645 20.3032 29.5645C25.6657 29.5645 30.0131 25.2819 30.0131 19.9999H28.2475C28.2475 24.3214 24.6903 27.8258 20.3032 27.8258C15.9151 27.8258 12.3589 24.3214 12.3589 19.9999C12.3589 15.6775 15.9151 12.1731 20.3032 12.1731V10.4344H20.3022Z" fill="#7130CC"/>
<path fill-rule="evenodd" clip-rule="evenodd" d="M25.7467 20.6561C25.7467 20.6561 24.5372 21.8841 22.3876 23.2499C20.237 24.6167 18.7861 25.1247 18.7861 25.1247C18.1429 25.3986 17.5461 25.0414 17.4591 24.3381C17.4591 24.3381 17.2139 22.9362 17.2139 19.9963C17.2139 17.0564 17.4609 15.6267 17.4609 15.6267C17.5405 14.9253 18.1309 14.5949 18.7657 14.8901C18.7657 14.8901 20.1093 15.4379 22.3876 16.8861C24.6659 18.3334 25.7226 19.3365 25.7226 19.3365C26.139 19.69 26.1474 20.2841 25.7467 20.6561Z" fill="#0C0417"/>
</svg>
